<mxfile host="drawio-plugin" modified="2024-04-08T10:57:28.098Z" agent="5.0 (Macintosh; Intel Mac OS X 10_15_7) AppleWebKit/537.36 (KHTML, like Gecko) Chrome/111.0.0.0 Safari/537.36" version="20.5.3" etag="ZDoq05hqsKoJs0UN6gYz" type="embed"><diagram id="JH1pUpU3caFnwqGivVRe" name="Page-1"><mxGraphModel dx="633" dy="320" grid="1" gridSize="10" guides="1" tooltips="1" connect="1" arrows="1" fold="1" page="1" pageScale="1" pageWidth="850" pageHeight="1100" math="0" shadow="0"><root><mxCell id="0"/><mxCell id="1" parent="0"/><mxCell id="2" value="UI" style="shape=umlActor;verticalLabelPosition=bottom;verticalAlign=top;html=1;outlineConnect=0;" vertex="1" parent="1"><mxGeometry x="650" y="420" width="30" height="60" as="geometry"/></mxCell><mxCell id="3" value="Batch Polling Service" style="rounded=0;whiteSpace=wrap;html=1;" vertex="1" parent="1"><mxGeometry x="210" y="130" width="120" height="60" as="geometry"/></mxCell><mxCell id="4" value="" style="endArrow=classic;html=1;rounded=0;entryX=0;entryY=0.5;entryDx=0;entryDy=0;" edge="1" parent="1" target="5"><mxGeometry width="50" height="50" relative="1" as="geometry"><mxPoint x="270" y="130" as="sourcePoint"/><mxPoint x="350" y="60" as="targetPoint"/></mxGeometry></mxCell><mxCell id="5" value="Skyscanner&lt;div&gt;&lt;br&gt;&lt;/div&gt;" style="rounded=0;whiteSpace=wrap;html=1;" vertex="1" parent="1"><mxGeometry x="380" y="30" width="120" height="60" as="geometry"/></mxCell><mxCell id="6" value="Booking.com" style="rounded=0;whiteSpace=wrap;html=1;" vertex="1" parent="1"><mxGeometry x="120" y="20" width="120" height="60" as="geometry"/></mxCell><mxCell id="7" value="" style="endArrow=classic;html=1;rounded=0;entryX=0.5;entryY=1;entryDx=0;entryDy=0;exitX=0.5;exitY=0;exitDx=0;exitDy=0;" edge="1" parent="1" source="3" target="6"><mxGeometry width="50" height="50" relative="1" as="geometry"><mxPoint x="280" y="140" as="sourcePoint"/><mxPoint x="360" y="70" as="targetPoint"/></mxGeometry></mxCell><mxCell id="8" value="" style="shape=flexArrow;endArrow=classic;html=1;rounded=0;exitX=0.5;exitY=1;exitDx=0;exitDy=0;entryX=0.5;entryY=0;entryDx=0;entryDy=0;" edge="1" parent="1" source="3" target="9"><mxGeometry width="50" height="50" relative="1" as="geometry"><mxPoint x="390" y="210" as="sourcePoint"/><mxPoint x="530" y="160" as="targetPoint"/></mxGeometry></mxCell><mxCell id="9" value="Confluent Kafka" style="rounded=0;whiteSpace=wrap;html=1;" vertex="1" parent="1"><mxGeometry x="210" y="300" width="120" height="60" as="geometry"/></mxCell><mxCell id="10" value="" style="shape=flexArrow;endArrow=classic;html=1;rounded=0;exitX=0.567;exitY=1.017;exitDx=0;exitDy=0;exitPerimeter=0;entryX=0.5;entryY=0;entryDx=0;entryDy=0;" edge="1" parent="1" source="9" target="11"><mxGeometry width="50" height="50" relative="1" as="geometry"><mxPoint x="290" y="420" as="sourcePoint"/><mxPoint x="280" y="430" as="targetPoint"/></mxGeometry></mxCell><mxCell id="11" value="Business logic service (combines &amp;amp; calculates)&lt;div&gt;Flink&lt;/div&gt;" style="rounded=0;whiteSpace=wrap;html=1;" vertex="1" parent="1"><mxGeometry x="220" y="430" width="120" height="60" as="geometry"/></mxCell><mxCell id="12" value="Iceberg" style="shape=cylinder3;whiteSpace=wrap;html=1;boundedLbl=1;backgroundOutline=1;size=15;" vertex="1" parent="1"><mxGeometry x="150" y="450" width="60" height="80" as="geometry"/></mxCell><mxCell id="13" value="" style="endArrow=classic;html=1;rounded=0;" edge="1" parent="1"><mxGeometry width="50" height="50" relative="1" as="geometry"><mxPoint x="630" y="450" as="sourcePoint"/><mxPoint x="560" y="450" as="targetPoint"/></mxGeometry></mxCell><mxCell id="14" value="&lt;div&gt;Analytics Dashboard view service&lt;/div&gt;" style="rounded=0;whiteSpace=wrap;html=1;" vertex="1" parent="1"><mxGeometry x="450" y="300" width="120" height="60" as="geometry"/></mxCell><mxCell id="15" value="Polls popular holiday destinations (LDN, NY, HK)" style="text;html=1;align=center;verticalAlign=middle;whiteSpace=wrap;rounded=0;" vertex="1" parent="1"><mxGeometry x="354" y="130" width="60" height="30" as="geometry"/></mxCell><mxCell id="16" value="Topics:&amp;nbsp;&lt;br&gt;- hotels&lt;br&gt;- flights" style="text;html=1;align=center;verticalAlign=middle;whiteSpace=wrap;rounded=0;" vertex="1" parent="1"><mxGeometry x="294" y="260" width="60" height="30" as="geometry"/></mxCell><mxCell id="17" value="API Gateway &amp;amp; authentication" style="rounded=0;whiteSpace=wrap;html=1;" vertex="1" parent="1"><mxGeometry x="460" y="430" width="100" height="40" as="geometry"/></mxCell><mxCell id="18" value="" style="endArrow=classic;html=1;rounded=0;entryX=0.5;entryY=1;entryDx=0;entryDy=0;exitX=0.5;exitY=0;exitDx=0;exitDy=0;" edge="1" parent="1" source="17" target="14"><mxGeometry width="50" height="50" relative="1" as="geometry"><mxPoint x="390" y="360" as="sourcePoint"/><mxPoint x="440" y="310" as="targetPoint"/></mxGeometry></mxCell><mxCell id="19" value="" style="shape=flexArrow;endArrow=classic;html=1;rounded=0;exitX=1;exitY=0.5;exitDx=0;exitDy=0;entryX=0;entryY=0.5;entryDx=0;entryDy=0;fontStyle=1;fillColor=#f8cecc;strokeColor=#b85450;" edge="1" parent="1" source="9" target="14"><mxGeometry width="50" height="50" relative="1" as="geometry"><mxPoint x="288" y="371" as="sourcePoint"/><mxPoint x="290" y="440" as="targetPoint"/></mxGeometry></mxCell><mxCell id="20" value="" style="shape=flexArrow;endArrow=classic;html=1;rounded=0;entryX=0.833;entryY=1.017;entryDx=0;entryDy=0;entryPerimeter=0;exitX=0.75;exitY=0;exitDx=0;exitDy=0;fillColor=#f8cecc;strokeColor=#b85450;" edge="1" parent="1" source="11" target="9"><mxGeometry width="50" height="50" relative="1" as="geometry"><mxPoint x="290" y="430" as="sourcePoint"/><mxPoint x="340" y="380" as="targetPoint"/></mxGeometry></mxCell><mxCell id="21" value="Topics:&amp;nbsp;&lt;br&gt;- aggregated data" style="text;html=1;align=center;verticalAlign=middle;whiteSpace=wrap;rounded=0;" vertex="1" parent="1"><mxGeometry x="320" y="390" width="90" height="30" as="geometry"/></mxCell></root></mxGraphModel></diagram></mxfile>